<?xml version="1.0" encoding="UTF-8" standalone="no"?>
<svg
   id="uuid-9d28dfd8-8ef0-4bcd-ae46-6a97b287a2a1"
   data-name="Layer 1"
   viewBox="0 0 65971.92 89916.012"
   version="1.1"
   sodipodi:docname="inkscapetest1.svg"
   inkscape:version="1.3 (0e150ed6c4, 2023-07-21)"
   inkscape:export-filename="pinesvg1.svg"
   inkscape:export-xdpi="96"
   inkscape:export-ydpi="96"
   width="65971.922"
   height="89916.008"
   xmlns:inkscape="http://www.inkscape.org/namespaces/inkscape"
   xmlns:sodipodi="http://sodipodi.sourceforge.net/DTD/sodipodi-0.dtd"
   xmlns="http://www.w3.org/2000/svg"
   xmlns:svg="http://www.w3.org/2000/svg">
  <sodipodi:namedview
     id="namedview421"
     pagecolor="#ffffff"
     bordercolor="#000000"
     borderopacity="0.25"
     inkscape:showpageshadow="2"
     inkscape:pageopacity="0.0"
     inkscape:pagecheckerboard="0"
     inkscape:deskcolor="#d1d1d1"
     inkscape:zoom="2.8513308"
     inkscape:cx="128.53647"
     inkscape:cy="149.92999"
     inkscape:window-width="1920"
     inkscape:window-height="1111"
     inkscape:window-x="1911"
     inkscape:window-y="-9"
     inkscape:window-maximized="1"
     inkscape:current-layer="uuid-9d28dfd8-8ef0-4bcd-ae46-6a97b287a2a1" />
  <defs
     id="defs1">
    <style
       id="style1">&#10;      .uuid-fd32c2c4-76e0-44e3-af07-fced437f9979, .uuid-7aace10c-9268-4ee0-8e11-945206a5a4e4, .uuid-d67e9863-37f1-4bea-bf37-bf84672742e9, .uuid-fc8722ef-eb6d-4776-b3a1-0d1b7fa2a46b, .uuid-a4abfb95-766a-405e-969f-0bdfc29ca912, .uuid-5671621d-d306-4e21-9230-d495e46fbcf1, .uuid-41ec7031-8cbb-43c6-8df6-26e0a7fc652a, .uuid-1ce1669f-5ad4-403b-a6b7-bd1c57db5130, .uuid-d23109a4-36b5-4321-9c3b-ef8656f0c705, .uuid-28e4f3d7-9879-4377-951a-2d581e12c226, .uuid-b352361f-7220-4409-89d4-ab03adbfde79, .uuid-b20266f4-856e-42ff-b4a9-b2ff4acc3bb9, .uuid-ea337ef9-ff0f-4ecd-ace7-849a773f1fb5, .uuid-b6853ec0-5369-46f1-8cf2-c43f962b0d8b {&#10;        stroke-width: 0px;&#10;      }&#10;&#10;      .uuid-fd32c2c4-76e0-44e3-af07-fced437f9979, .uuid-7aace10c-9268-4ee0-8e11-945206a5a4e4, .uuid-a4abfb95-766a-405e-969f-0bdfc29ca912, .uuid-5671621d-d306-4e21-9230-d495e46fbcf1, .uuid-1ce1669f-5ad4-403b-a6b7-bd1c57db5130, .uuid-d23109a4-36b5-4321-9c3b-ef8656f0c705, .uuid-b352361f-7220-4409-89d4-ab03adbfde79, .uuid-b20266f4-856e-42ff-b4a9-b2ff4acc3bb9, .uuid-ea337ef9-ff0f-4ecd-ace7-849a773f1fb5, .uuid-b6853ec0-5369-46f1-8cf2-c43f962b0d8b {&#10;        fill-rule: evenodd;&#10;      }&#10;&#10;      .uuid-fd32c2c4-76e0-44e3-af07-fced437f9979, .uuid-fc8722ef-eb6d-4776-b3a1-0d1b7fa2a46b {&#10;        fill: #f99b2c;&#10;      }&#10;&#10;      .uuid-7aace10c-9268-4ee0-8e11-945206a5a4e4 {&#10;        fill: #f3703f;&#10;      }&#10;&#10;      .uuid-d67e9863-37f1-4bea-bf37-bf84672742e9, .uuid-1ce1669f-5ad4-403b-a6b7-bd1c57db5130 {&#10;        fill: #884c2a;&#10;      }&#10;&#10;      .uuid-a4abfb95-766a-405e-969f-0bdfc29ca912 {&#10;        fill: #e0e4ad;&#10;      }&#10;&#10;      .uuid-5671621d-d306-4e21-9230-d495e46fbcf1 {&#10;        fill: #cb856b;&#10;      }&#10;&#10;      .uuid-41ec7031-8cbb-43c6-8df6-26e0a7fc652a, .uuid-ea337ef9-ff0f-4ecd-ace7-849a773f1fb5 {&#10;        fill: #f9df19;&#10;      }&#10;&#10;      .uuid-d23109a4-36b5-4321-9c3b-ef8656f0c705 {&#10;        fill: #a9d154;&#10;      }&#10;&#10;      .uuid-28e4f3d7-9879-4377-951a-2d581e12c226, .uuid-b352361f-7220-4409-89d4-ab03adbfde79 {&#10;        fill: #fff;&#10;      }&#10;&#10;      .uuid-b20266f4-856e-42ff-b4a9-b2ff4acc3bb9 {&#10;        fill: #f9eca3;&#10;      }&#10;&#10;      .uuid-b6853ec0-5369-46f1-8cf2-c43f962b0d8b {&#10;        fill: #e17cb2;&#10;      }&#10;    </style>
  </defs>
  <g
     id="g150">
    <g
       id="g143">
      <path
         class="uuid-d23109a4-36b5-4321-9c3b-ef8656f0c705"
         d="m 208.56,165.78 c 0.19,0.08 0.35,0.19 0.51,0.31 -0.49,0.85 -0.54,2.03 -0.05,3.14 0.15,0.33 0.33,0.62 0.54,0.89 -0.79,1.52 -2.39,2.27 -3.68,1.7 -1.35,-0.6 -1.85,-2.44 -1.11,-4.11 0.74,-1.67 2.44,-2.53 3.79,-1.93 z"
         id="path142" />
      <path
         class="uuid-d67e9863-37f1-4bea-bf37-bf84672742e9"
         d="m 206.79,172.43 c -0.38,0 -0.75,-0.08 -1.09,-0.23 -0.77,-0.34 -1.33,-1.03 -1.58,-1.93 -0.23,-0.87 -0.14,-1.84 0.25,-2.74 0.63,-1.42 1.95,-2.37 3.27,-2.37 0.38,0 0.74,0.08 1.08,0.23 0.22,0.1 0.42,0.22 0.6,0.37 l 0.28,0.23 -0.18,0.31 c -0.44,0.76 -0.45,1.81 -0.03,2.75 0.13,0.29 0.29,0.55 0.48,0.79 l 0.17,0.22 -0.13,0.25 c -0.67,1.29 -1.91,2.12 -3.15,2.12 z m 0.86,-6.42 c -0.99,0 -2,0.75 -2.49,1.87 -0.32,0.72 -0.39,1.49 -0.21,2.17 0.17,0.65 0.57,1.14 1.1,1.38 1,0.45 2.3,-0.13 3,-1.28 -0.16,-0.23 -0.3,-0.48 -0.42,-0.75 -0.47,-1.07 -0.51,-2.22 -0.11,-3.17 -0.04,-0.02 -0.09,-0.05 -0.14,-0.07 -0.23,-0.1 -0.48,-0.15 -0.74,-0.15 z"
         id="path143" />
    </g>
    <g
       id="g145">
      <path
         class="uuid-d23109a4-36b5-4321-9c3b-ef8656f0c705"
         d="m 210.13,165.12 c -1.35,0.6 -1.85,2.44 -1.11,4.11 0.74,1.67 2.44,2.53 3.79,1.93 1.35,-0.6 1.85,-2.44 1.11,-4.11 -0.74,-1.67 -2.44,-2.53 -3.79,-1.93 z"
         id="path144" />
      <path
         class="uuid-d67e9863-37f1-4bea-bf37-bf84672742e9"
         d="m 211.9,171.77 v 0 c -1.32,0 -2.64,-0.95 -3.27,-2.37 -0.4,-0.89 -0.49,-1.87 -0.25,-2.74 0.24,-0.9 0.8,-1.59 1.58,-1.93 0.34,-0.15 0.71,-0.23 1.09,-0.23 1.32,0 2.64,0.95 3.27,2.37 0.83,1.88 0.24,3.97 -1.32,4.67 -0.34,0.15 -0.71,0.23 -1.08,0.23 z m -0.86,-6.42 c -0.26,0 -0.51,0.05 -0.74,0.16 -0.54,0.24 -0.93,0.73 -1.1,1.38 -0.18,0.68 -0.11,1.45 0.21,2.17 0.5,1.12 1.5,1.87 2.49,1.87 v 0 c 0.26,0 0.51,-0.05 0.74,-0.16 1.14,-0.51 1.54,-2.1 0.89,-3.55 -0.5,-1.12 -1.5,-1.87 -2.49,-1.87 z"
         id="path145" />
    </g>
    <path
       class="uuid-b352361f-7220-4409-89d4-ab03adbfde79"
       d="m 210.82,166.68 c -0.72,0.35 -0.81,2.02 -0.6,2.5 -0.93,-0.8 -0.73,-2.87 0.28,-3.22 z"
       id="path146" />
    <path
       class="uuid-b352361f-7220-4409-89d4-ab03adbfde79"
       d="m 207.64,167.29 c -0.8,-0.05 -1.71,1.34 -1.77,1.87 -0.41,-1.16 0.8,-2.86 1.85,-2.65 z"
       id="path147" />
    <path
       class="uuid-1ce1669f-5ad4-403b-a6b7-bd1c57db5130"
       d="m 215.3,160.94 c -3.32,-0.11 -4.67,0.37 -6.09,3.43 2.65,-1.4 2.06,-0.45 6.09,-3.43 z"
       id="path148" />
    <path
       class="uuid-1ce1669f-5ad4-403b-a6b7-bd1c57db5130"
       d="m 204.06,159.71 c 1.75,1.6 3.98,0.43 4.56,4.04 -0.65,-2.04 -4,-0.5 -4.56,-4.04 z"
       id="path149" />
    <path
       class="uuid-1ce1669f-5ad4-403b-a6b7-bd1c57db5130"
       d="m 201.12,164.2 c 2.83,-0.93 5.43,-1.84 7.17,0 -2.23,-0.29 -3.37,1.07 -7.17,0 z"
       id="path150" />
  </g>
</svg>
