<?xml version="1.0" encoding="UTF-8" standalone="no"?>
<svg
   id="uuid-9d28dfd8-8ef0-4bcd-ae46-6a97b287a2a1"
   data-name="Layer 1"
   viewBox="0 0 65971.92 89916.012"
   version="1.1"
   sodipodi:docname="inkscapetest1.svg"
   inkscape:version="1.3 (0e150ed6c4, 2023-07-21)"
   inkscape:export-filename="pinesvg1.svg"
   inkscape:export-xdpi="96"
   inkscape:export-ydpi="96"
   width="65971.922"
   height="89916.008"
   xmlns:inkscape="http://www.inkscape.org/namespaces/inkscape"
   xmlns:sodipodi="http://sodipodi.sourceforge.net/DTD/sodipodi-0.dtd"
   xmlns="http://www.w3.org/2000/svg"
   xmlns:svg="http://www.w3.org/2000/svg">
  <sodipodi:namedview
     id="namedview421"
     pagecolor="#ffffff"
     bordercolor="#000000"
     borderopacity="0.25"
     inkscape:showpageshadow="2"
     inkscape:pageopacity="0.0"
     inkscape:pagecheckerboard="0"
     inkscape:deskcolor="#d1d1d1"
     inkscape:zoom="2.8513308"
     inkscape:cx="128.53647"
     inkscape:cy="149.92999"
     inkscape:window-width="1920"
     inkscape:window-height="1111"
     inkscape:window-x="1911"
     inkscape:window-y="-9"
     inkscape:window-maximized="1"
     inkscape:current-layer="uuid-9d28dfd8-8ef0-4bcd-ae46-6a97b287a2a1" />
  <defs
     id="defs1">
    <style
       id="style1">&#10;      .uuid-fd32c2c4-76e0-44e3-af07-fced437f9979, .uuid-7aace10c-9268-4ee0-8e11-945206a5a4e4, .uuid-d67e9863-37f1-4bea-bf37-bf84672742e9, .uuid-fc8722ef-eb6d-4776-b3a1-0d1b7fa2a46b, .uuid-a4abfb95-766a-405e-969f-0bdfc29ca912, .uuid-5671621d-d306-4e21-9230-d495e46fbcf1, .uuid-41ec7031-8cbb-43c6-8df6-26e0a7fc652a, .uuid-1ce1669f-5ad4-403b-a6b7-bd1c57db5130, .uuid-d23109a4-36b5-4321-9c3b-ef8656f0c705, .uuid-28e4f3d7-9879-4377-951a-2d581e12c226, .uuid-b352361f-7220-4409-89d4-ab03adbfde79, .uuid-b20266f4-856e-42ff-b4a9-b2ff4acc3bb9, .uuid-ea337ef9-ff0f-4ecd-ace7-849a773f1fb5, .uuid-b6853ec0-5369-46f1-8cf2-c43f962b0d8b {&#10;        stroke-width: 0px;&#10;      }&#10;&#10;      .uuid-fd32c2c4-76e0-44e3-af07-fced437f9979, .uuid-7aace10c-9268-4ee0-8e11-945206a5a4e4, .uuid-a4abfb95-766a-405e-969f-0bdfc29ca912, .uuid-5671621d-d306-4e21-9230-d495e46fbcf1, .uuid-1ce1669f-5ad4-403b-a6b7-bd1c57db5130, .uuid-d23109a4-36b5-4321-9c3b-ef8656f0c705, .uuid-b352361f-7220-4409-89d4-ab03adbfde79, .uuid-b20266f4-856e-42ff-b4a9-b2ff4acc3bb9, .uuid-ea337ef9-ff0f-4ecd-ace7-849a773f1fb5, .uuid-b6853ec0-5369-46f1-8cf2-c43f962b0d8b {&#10;        fill-rule: evenodd;&#10;      }&#10;&#10;      .uuid-fd32c2c4-76e0-44e3-af07-fced437f9979, .uuid-fc8722ef-eb6d-4776-b3a1-0d1b7fa2a46b {&#10;        fill: #f99b2c;&#10;      }&#10;&#10;      .uuid-7aace10c-9268-4ee0-8e11-945206a5a4e4 {&#10;        fill: #f3703f;&#10;      }&#10;&#10;      .uuid-d67e9863-37f1-4bea-bf37-bf84672742e9, .uuid-1ce1669f-5ad4-403b-a6b7-bd1c57db5130 {&#10;        fill: #884c2a;&#10;      }&#10;&#10;      .uuid-a4abfb95-766a-405e-969f-0bdfc29ca912 {&#10;        fill: #e0e4ad;&#10;      }&#10;&#10;      .uuid-5671621d-d306-4e21-9230-d495e46fbcf1 {&#10;        fill: #cb856b;&#10;      }&#10;&#10;      .uuid-41ec7031-8cbb-43c6-8df6-26e0a7fc652a, .uuid-ea337ef9-ff0f-4ecd-ace7-849a773f1fb5 {&#10;        fill: #f9df19;&#10;      }&#10;&#10;      .uuid-d23109a4-36b5-4321-9c3b-ef8656f0c705 {&#10;        fill: #a9d154;&#10;      }&#10;&#10;      .uuid-28e4f3d7-9879-4377-951a-2d581e12c226, .uuid-b352361f-7220-4409-89d4-ab03adbfde79 {&#10;        fill: #fff;&#10;      }&#10;&#10;      .uuid-b20266f4-856e-42ff-b4a9-b2ff4acc3bb9 {&#10;        fill: #f9eca3;&#10;      }&#10;&#10;      .uuid-b6853ec0-5369-46f1-8cf2-c43f962b0d8b {&#10;        fill: #e17cb2;&#10;      }&#10;    </style>
  </defs>
  <g
     id="g133">
    <g
       id="g132">
      <g
         id="g109">
        <path
           class="uuid-1ce1669f-5ad4-403b-a6b7-bd1c57db5130"
           d="m 166.81,163.68 -0.4,-0.4 c 0.28,-0.26 0.58,-0.48 0.89,-0.65 0.12,0.06 0.23,0.13 0.33,0.23 z"
           id="path107" />
        <path
           class="uuid-1ce1669f-5ad4-403b-a6b7-bd1c57db5130"
           d="m 168.83,163.68 -0.82,-0.82 c 0.45,-0.45 1.19,-0.45 1.64,0 z"
           id="path108" />
        <path
           class="uuid-1ce1669f-5ad4-403b-a6b7-bd1c57db5130"
           d="m 170.85,163.68 -0.82,-0.82 c 0.1,-0.1 0.21,-0.18 0.33,-0.23 0.32,0.17 0.61,0.39 0.89,0.65 z"
           id="path109" />
      </g>
      <g
         id="g114">
        <path
           class="uuid-1ce1669f-5ad4-403b-a6b7-bd1c57db5130"
           d="m 164.8,166.89 -0.23,-0.23 c 0.07,-0.31 0.16,-0.63 0.27,-0.93 0.28,0.01 0.56,0.12 0.78,0.34 z"
           id="path110" />
        <path
           class="uuid-1ce1669f-5ad4-403b-a6b7-bd1c57db5130"
           d="m 166.81,166.89 -0.82,-0.82 c 0.45,-0.45 1.19,-0.45 1.64,0 z"
           id="path111" />
        <path
           class="uuid-1ce1669f-5ad4-403b-a6b7-bd1c57db5130"
           d="m 168.83,166.89 -0.82,-0.82 c 0.45,-0.45 1.19,-0.45 1.64,0 z"
           id="path112" />
        <path
           class="uuid-1ce1669f-5ad4-403b-a6b7-bd1c57db5130"
           d="m 170.85,166.89 -0.82,-0.82 c 0.45,-0.45 1.19,-0.45 1.64,0 z"
           id="path113" />
        <path
           class="uuid-1ce1669f-5ad4-403b-a6b7-bd1c57db5130"
           d="m 172.86,166.89 -0.82,-0.82 c 0.22,-0.22 0.5,-0.33 0.78,-0.34 0.11,0.31 0.2,0.62 0.27,0.93 z"
           id="path114" />
      </g>
      <g
         id="g119">
        <path
           class="uuid-1ce1669f-5ad4-403b-a6b7-bd1c57db5130"
           d="m 164.56,168.96 c 0.37,-0.08 0.77,0.03 1.06,0.32 l -0.67,0.67 c -0.17,-0.3 -0.3,-0.63 -0.38,-0.99 z"
           id="path115" />
        <path
           class="uuid-1ce1669f-5ad4-403b-a6b7-bd1c57db5130"
           d="m 166.81,170.1 -0.82,-0.82 c 0.45,-0.45 1.19,-0.45 1.64,0 z"
           id="path116" />
        <path
           class="uuid-1ce1669f-5ad4-403b-a6b7-bd1c57db5130"
           d="m 168.83,170.1 -0.82,-0.82 c 0.45,-0.45 1.19,-0.45 1.64,0 z"
           id="path117" />
        <path
           class="uuid-1ce1669f-5ad4-403b-a6b7-bd1c57db5130"
           d="m 170.85,170.1 -0.82,-0.82 c 0.45,-0.45 1.19,-0.45 1.64,0 z"
           id="path118" />
        <path
           class="uuid-1ce1669f-5ad4-403b-a6b7-bd1c57db5130"
           d="m 172.72,169.95 -0.67,-0.67 c 0.29,-0.29 0.69,-0.39 1.06,-0.32 -0.09,0.36 -0.22,0.69 -0.38,0.99 z"
           id="path119" />
      </g>
      <g
         id="g123">
        <path
           class="uuid-1ce1669f-5ad4-403b-a6b7-bd1c57db5130"
           d="m 165.8,165.28 -0.52,-0.52 c 0.12,-0.22 0.25,-0.43 0.4,-0.63 0.34,-0.04 0.69,0.07 0.95,0.33 l -0.82,0.82 z"
           id="path120" />
        <path
           class="uuid-1ce1669f-5ad4-403b-a6b7-bd1c57db5130"
           d="M 167.82,165.28 167,164.46 c 0.45,-0.45 1.19,-0.45 1.64,0 z"
           id="path121" />
        <path
           class="uuid-1ce1669f-5ad4-403b-a6b7-bd1c57db5130"
           d="m 169.84,165.28 -0.82,-0.82 c 0.45,-0.45 1.19,-0.45 1.64,0 z"
           id="path122" />
        <path
           class="uuid-1ce1669f-5ad4-403b-a6b7-bd1c57db5130"
           d="m 171.86,165.28 -0.82,-0.82 c 0.26,-0.26 0.61,-0.37 0.95,-0.33 0.14,0.2 0.28,0.41 0.4,0.63 l -0.52,0.52 z"
           id="path123" />
      </g>
      <g
         id="g127">
        <path
           class="uuid-1ce1669f-5ad4-403b-a6b7-bd1c57db5130"
           d="m 165.8,168.5 -0.82,-0.82 c 0.45,-0.45 1.19,-0.45 1.64,0 z"
           id="path124" />
        <path
           class="uuid-1ce1669f-5ad4-403b-a6b7-bd1c57db5130"
           d="M 167.82,168.5 167,167.68 c 0.45,-0.45 1.19,-0.45 1.64,0 z"
           id="path125" />
        <path
           class="uuid-1ce1669f-5ad4-403b-a6b7-bd1c57db5130"
           d="m 169.84,168.5 -0.82,-0.82 c 0.45,-0.45 1.19,-0.45 1.64,0 z"
           id="path126" />
        <path
           class="uuid-1ce1669f-5ad4-403b-a6b7-bd1c57db5130"
           d="m 171.86,168.5 -0.82,-0.82 c 0.45,-0.45 1.19,-0.45 1.64,0 z"
           id="path127" />
      </g>
      <g
         id="g131">
        <path
           class="uuid-1ce1669f-5ad4-403b-a6b7-bd1c57db5130"
           d="m 165.41,170.61 c 0.41,-0.15 0.89,-0.06 1.21,0.27 l -0.41,0.41 c -0.3,-0.19 -0.57,-0.42 -0.8,-0.68 z"
           id="path128" />
        <path
           class="uuid-1ce1669f-5ad4-403b-a6b7-bd1c57db5130"
           d="M 167.82,171.71 167,170.89 c 0.45,-0.45 1.19,-0.45 1.64,0 z"
           id="path129" />
        <path
           class="uuid-1ce1669f-5ad4-403b-a6b7-bd1c57db5130"
           d="m 169.84,171.71 -0.82,-0.82 c 0.45,-0.45 1.19,-0.45 1.64,0 z"
           id="path130" />
        <path
           class="uuid-1ce1669f-5ad4-403b-a6b7-bd1c57db5130"
           d="m 171.44,171.29 -0.41,-0.41 c 0.33,-0.33 0.8,-0.42 1.21,-0.27 -0.23,0.26 -0.5,0.49 -0.8,0.68 z"
           id="path131" />
      </g>
    </g>
    <path
       class="uuid-1ce1669f-5ad4-403b-a6b7-bd1c57db5130"
       d="m 170.31,162.6 c 0.07,-0.03 0.13,-0.1 0.2,-0.22 0.45,-0.78 0.94,-1.89 1.95,-1.82 -0.53,-0.52 -1.19,-0.31 -1.85,-0.02 0.02,-0.78 0.18,-0.9 1.28,-1.44 -0.9,-0.23 -1.57,-0.02 -2.11,0.48 0.07,-0.76 0.33,-1.22 1.32,-1.7 -1.01,-0.26 -2.07,0.37 -2.52,1.2 -0.45,-0.92 -1.39,-1.17 -2.64,-0.77 0.81,0.22 1.32,0.58 1.4,1.3 -0.33,-0.13 -1.5,-0.29 -2.22,0.23 0.4,0.09 1.19,0.27 1.66,0.71 -0.58,-0.1 -1.16,-0.06 -1.56,0.33 1.53,0.2 1.4,1.13 2.19,1.68 0.45,-0.23 0.93,-0.36 1.43,-0.36 0.5,0 1.02,0.14 1.48,0.38 z"
       id="path132" />
    <path
       class="uuid-d67e9863-37f1-4bea-bf37-bf84672742e9"
       d="m 168.83,172.43 c -2.84,0 -4.82,-1.87 -4.82,-4.55 0,-2.81 2.1,-6.08 4.82,-6.08 2.72,0 4.82,3.27 4.82,6.08 0,2.81 -1.98,4.55 -4.82,4.55 z m 0,-9.79 c -2.2,0 -3.97,2.86 -3.97,5.23 0,2.56 1.99,3.7 3.97,3.7 1.98,0 3.97,-1.15 3.97,-3.7 0,-2.37 -1.77,-5.23 -3.97,-5.23 z"
       id="path133" />
  </g>
</svg>
